<?xml version="1.0" encoding="utf-8"?>
<!-- Generator: Adobe Illustrator 16.2.0, SVG Export Plug-In . SVG Version: 6.00 Build 0)  -->
<!DOCTYPE svg PUBLIC "-//W3C//DTD SVG 1.1//EN" "http://www.w3.org/Graphics/SVG/1.1/DTD/svg11.dtd">
<svg version="1.1" id="Layer_2" xmlns="http://www.w3.org/2000/svg" xmlns:xlink="http://www.w3.org/1999/xlink" x="0px" y="0px"
	 width="1280px" height="800px" viewBox="0 0 1280 800" enable-background="new 0 0 1280 800" xml:space="preserve">
<linearGradient id="SVGID_1_" gradientUnits="userSpaceOnUse" x1="637.4995" y1="-15" x2="637.4995" y2="882.0005">
	<stop  offset="4.838710e-002" style="stop-color:#FFFFFF"/>
	<stop  offset="9.139785e-002" style="stop-color:#D4FFF6"/>
	<stop  offset="1" style="stop-color:#FFB354"/>
</linearGradient>
<rect x="-18" y="-15" fill="url(#SVGID_1_)" width="1311" height="897"/>
<linearGradient id="SVGID_2_" gradientUnits="userSpaceOnUse" x1="837.6133" y1="653.3428" x2="837.6133" y2="496.5811">
	<stop  offset="0.6452" style="stop-color:#A294FF"/>
	<stop  offset="1" style="stop-color:#FFB354"/>
</linearGradient>
<path opacity="0.4" fill="url(#SVGID_2_)" d="M670.4,593.3c0,0,117.3-52.5,148.7-81.5s35.5-10.6,54.6,5.1
	c19.1,15.7,21.1,21.1,33.4,13.6c12.3-7.5,17.3-10.3,34.1,7.1c19,19.7,40.2,46.7,60.7,48.1c20.5,1.4-66.8,67.5-66.8,67.5"/>
<linearGradient id="SVGID_3_" gradientUnits="userSpaceOnUse" x1="1126.7119" y1="692.1768" x2="1126.7119" y2="558.3711">
	<stop  offset="0.6452" style="stop-color:#A294FF"/>
	<stop  offset="1" style="stop-color:#FFB354"/>
</linearGradient>
<path opacity="0.4" fill="url(#SVGID_3_)" d="M901.7,610.7c0,0,58.6-7,88.3-27.8c29.7-20.8,47.4-34.1,73.3-16
	c25.9,18.1,35.5,35.8,84,24.5s46.2-24.5,66.1-14.8s38,44.8,56.4,36.1c18.4-8.7,37.8-17.5,49.5-10.3c11.8,7.2,35,36.6,32,37.1
	c-3.1,0.5-283.3,52.7-283.3,52.7"/>
<linearGradient id="SVGID_4_" gradientUnits="userSpaceOnUse" x1="636.5044" y1="688.416" x2="636.5044" y2="518.9561">
	<stop  offset="0.6452" style="stop-color:#A294FF"/>
	<stop  offset="1" style="stop-color:#FFB354"/>
</linearGradient>
<path opacity="0.4" fill="url(#SVGID_4_)" d="M380.4,605.9c0,0,88.3-14.3,148.3-49.4s82.9-49.1,112.9-26.6
	c30,22.5,50.5,50.8,79.1,34.1c28.6-16.7,58-5.1,80.8,11.6c22.8,16.7,91,40.9,91,40.9L675,688.4"/>
<linearGradient id="SVGID_5_" gradientUnits="userSpaceOnUse" x1="615.7007" y1="584" x2="615.7007" y2="418.6016">
	<stop  offset="0.2849" style="stop-color:#A294FF"/>
	<stop  offset="1" style="stop-color:#FFB354"/>
</linearGradient>
<path opacity="0.4" fill="url(#SVGID_5_)" d="M397,512c1.5,0,98-12,145-57.5s71-48.9,101-3.7s46.9,54.5,64,39.3
	c22.7-20.2,24.8-32.3,49.8-1.8c20.6,25.1,44.7,31.6,74.3,34.3S687.5,584,687.5,584"/>
<linearGradient id="SVGID_6_" gradientUnits="userSpaceOnUse" x1="615.7007" y1="594" x2="615.7007" y2="428.6016">
	<stop  offset="0.2849" style="stop-color:#A294FF"/>
	<stop  offset="1" style="stop-color:#FFB354"/>
</linearGradient>
<path opacity="0.6" fill="url(#SVGID_6_)" d="M397,522c1.5,0,98-12,145-57.5s71-48.9,101-3.7s46.9,54.5,64,39.3
	c22.7-20.2,24.8-32.3,49.8-1.8c20.6,25.1,44.7,31.6,74.3,34.3S687.5,594,687.5,594"/>
<linearGradient id="SVGID_7_" gradientUnits="userSpaceOnUse" x1="615.7007" y1="604" x2="615.7007" y2="438.6016">
	<stop  offset="0" style="stop-color:#FFB354"/>
	<stop  offset="0.3441" style="stop-color:#99BFAA"/>
	<stop  offset="0.4852" style="stop-color:#84ABA0"/>
	<stop  offset="0.7098" style="stop-color:#679092"/>
	<stop  offset="0.8387" style="stop-color:#5C868D"/>
</linearGradient>
<path fill="url(#SVGID_7_)" d="M397,532c1.5,0,98-12,145-57.5s71-48.9,101-3.7s46.9,54.5,64,39.3c22.7-20.2,24.8-32.3,49.8-1.8
	c20.6,25.1,44.7,31.6,74.3,34.3S687.5,604,687.5,604"/>
<linearGradient id="SVGID_8_" gradientUnits="userSpaceOnUse" x1="409.7886" y1="650" x2="409.7886" y2="484.1836">
	<stop  offset="0.5054" style="stop-color:#A294FF"/>
	<stop  offset="1" style="stop-color:#FFB354"/>
</linearGradient>
<path fill="url(#SVGID_8_)" d="M185.5,578c0,0,131.5-45,168.5-76.5s53.5-15.5,78,12s50.9,26.2,77,13.5c34.3-16.8,39,13,64.5,24.5
	S636,650,634,650"/>
<linearGradient id="SVGID_9_" gradientUnits="userSpaceOnUse" x1="834.5186" y1="655.334" x2="834.5186" y2="502.082">
	<stop  offset="0" style="stop-color:#FFB354"/>
	<stop  offset="0.3441" style="stop-color:#99BFAA"/>
	<stop  offset="0.4852" style="stop-color:#84ABA0"/>
	<stop  offset="0.7098" style="stop-color:#679092"/>
	<stop  offset="0.8387" style="stop-color:#5C868D"/>
</linearGradient>
<path fill="url(#SVGID_9_)" d="M671,596.7c0,0,114.7-51.3,145.3-79.7s34.7-10.3,53.3,5s20.7,20.7,32.7,13.3s16.9-10.1,33.3,7
	c18.6,19.3,39.3,45.7,59.3,47s-65.3,66-65.3,66"/>
<linearGradient id="SVGID_10_" gradientUnits="userSpaceOnUse" x1="833.5186" y1="667.334" x2="833.5186" y2="514.082">
	<stop  offset="0" style="stop-color:#FFB354"/>
	<stop  offset="0.3441" style="stop-color:#99BFAA"/>
	<stop  offset="0.4852" style="stop-color:#84ABA0"/>
	<stop  offset="0.7098" style="stop-color:#679092"/>
	<stop  offset="0.8387" style="stop-color:#5C868D"/>
</linearGradient>
<path fill="url(#SVGID_10_)" d="M670,608.7c0,0,114.7-51.3,145.3-79.7s34.7-10.3,53.3,5s20.7,20.7,32.7,13.3s16.9-10.1,33.3,7
	c18.6,19.3,39.3,45.7,59.3,47s-65.3,66-65.3,66"/>
<linearGradient id="SVGID_11_" gradientUnits="userSpaceOnUse" x1="1098.584" y1="706.001" x2="1098.584" y2="553.6904">
	<stop  offset="0" style="stop-color:#FFB354"/>
	<stop  offset="0.3441" style="stop-color:#99BFAA"/>
	<stop  offset="0.4852" style="stop-color:#84ABA0"/>
	<stop  offset="0.7098" style="stop-color:#679092"/>
	<stop  offset="0.8387" style="stop-color:#5C868D"/>
</linearGradient>
<path fill="url(#SVGID_11_)" d="M862.2,613.7c0,0,85.5-15.7,114.5-36s46.3-33.3,71.7-15.7s34.7,35,82.2,24s45.2-24,64.7-14.5
	s37.2,43.8,55.2,35.3s36.9-17.1,48.4-10.1s39,50.7,36,51.2S1013,706,1013,706"/>
<linearGradient id="SVGID_12_" gradientUnits="userSpaceOnUse" x1="602.771" y1="724" x2="602.771" y2="514">
	<stop  offset="0.4946" style="stop-color:#A294FF"/>
	<stop  offset="1" style="stop-color:#FFB354"/>
</linearGradient>
<path opacity="0.4" fill="url(#SVGID_12_)" d="M258.9,635.5c0,0,211.1-50.5,269.8-84.9s81-48,110.3-26s49.3,49.7,77.3,33.3
	s56.7-5,79,11.3s151.3,77.6,151.3,77.6L626,724"/>
<linearGradient id="SVGID_13_" gradientUnits="userSpaceOnUse" x1="410.1587" y1="660.8867" x2="410.1587" y2="491.2734">
	<stop  offset="0" style="stop-color:#FFB354"/>
	<stop  offset="0.3441" style="stop-color:#99BFAA"/>
	<stop  offset="0.4852" style="stop-color:#84ABA0"/>
	<stop  offset="0.7098" style="stop-color:#679092"/>
	<stop  offset="0.8387" style="stop-color:#5C868D"/>
</linearGradient>
<path fill="url(#SVGID_13_)" d="M180.7,587.2c0,0,134.5-46,172.4-78.3c37.8-32.2,54.7-15.9,79.8,12.3s52.1,26.8,78.8,13.8
	c35-17.1,39.9,13.3,66,25.1c26.1,11.8,63.9,100.8,61.9,100.8"/>
<linearGradient id="SVGID_14_" gradientUnits="userSpaceOnUse" x1="148.3257" y1="701.7256" x2="148.3257" y2="531.7324">
	<stop  offset="0.6452" style="stop-color:#A294FF"/>
	<stop  offset="1" style="stop-color:#FFB354"/>
</linearGradient>
<path opacity="0.4" fill="url(#SVGID_14_)" d="M-94.4,611.7c0,0,93.1-10.2,162.6-51.7s94.1-30.2,121.7-11.8s28.6,29.9,53.7,15.7
	c25.1-14.2,45.8-9.2,69.2,3.9c23.4,13.1,78.1,43.8,78.1,43.8l-331.9,90"/>
<linearGradient id="SVGID_15_" gradientUnits="userSpaceOnUse" x1="164.6445" y1="736.667" x2="164.6445" y2="542.3125">
	<stop  offset="0" style="stop-color:#FFB354"/>
	<stop  offset="0.3441" style="stop-color:#99BFAA"/>
	<stop  offset="0.4852" style="stop-color:#84ABA0"/>
	<stop  offset="0.7098" style="stop-color:#679092"/>
	<stop  offset="0.8387" style="stop-color:#5C868D"/>
</linearGradient>
<path fill="url(#SVGID_15_)" d="M-80.5,620.5c0,0,91-10,159-50.5s92-29.5,119-11.5s28,29.2,52.5,15.4s44.8-9,67.6,3.8
	s92.2,38.8,92.2,38.8L-54.3,736.7"/>
<linearGradient id="SVGID_16_" gradientUnits="userSpaceOnUse" x1="602.771" y1="732" x2="602.771" y2="522">
	<stop  offset="0.4946" style="stop-color:#A294FF"/>
	<stop  offset="1" style="stop-color:#FFB354"/>
</linearGradient>
<path opacity="0.61" fill="url(#SVGID_16_)" d="M258.9,643.5c0,0,211.1-50.5,269.8-84.9s81-48,110.3-26s49.3,49.7,77.3,33.3
	s56.7-5,79,11.3s151.3,77.6,151.3,77.6L626,732"/>
<linearGradient id="SVGID_17_" gradientUnits="userSpaceOnUse" x1="602.771" y1="742" x2="602.771" y2="532">
	<stop  offset="0" style="stop-color:#FFB354"/>
	<stop  offset="0.3441" style="stop-color:#99BFAA"/>
	<stop  offset="0.4852" style="stop-color:#84ABA0"/>
	<stop  offset="0.7098" style="stop-color:#679092"/>
	<stop  offset="0.8387" style="stop-color:#5C868D"/>
</linearGradient>
<path fill="url(#SVGID_17_)" d="M258.9,653.5c0,0,211.1-50.5,269.8-84.9s81-48,110.3-26s49.3,49.7,77.3,33.3s56.7-5,79,11.3
	s151.3,77.6,151.3,77.6L626,742"/>
<linearGradient id="SVGID_18_" gradientUnits="userSpaceOnUse" x1="614.0005" y1="1090" x2="614.0005" y2="615.874">
	<stop  offset="0" style="stop-color:#A294FF"/>
	<stop  offset="0.4038" style="stop-color:#A394FD"/>
	<stop  offset="0.5492" style="stop-color:#A796F6"/>
	<stop  offset="0.6529" style="stop-color:#AD98EB"/>
	<stop  offset="0.7368" style="stop-color:#B69BDA"/>
	<stop  offset="0.8085" style="stop-color:#C29FC4"/>
	<stop  offset="0.8721" style="stop-color:#D1A4A8"/>
	<stop  offset="0.9296" style="stop-color:#E3AA88"/>
	<stop  offset="0.9807" style="stop-color:#F6B064"/>
	<stop  offset="1" style="stop-color:#FFB354"/>
</linearGradient>
<path opacity="0.4" fill="url(#SVGID_18_)" d="M-99,630.7c0,0,80.7,72.7,234,34S316.3,604,434.3,628
	c106.6,21.7,112.7,62.3,252.7,25.3c151.3-40,162-49.3,232.7-21.3s70,34,114.7,18s40-18.1,88.7-4.1s81.3,16.6,122,0
	s68-11.9,101.3,2.7S1443,742,1443,742l-58,348l-1600-68"/>
<linearGradient id="SVGID_19_" gradientUnits="userSpaceOnUse" x1="616.0005" y1="1078" x2="616.0005" y2="603.874">
	<stop  offset="0" style="stop-color:#A294FF"/>
	<stop  offset="0.4038" style="stop-color:#A394FD"/>
	<stop  offset="0.5492" style="stop-color:#A796F6"/>
	<stop  offset="0.6529" style="stop-color:#AD98EB"/>
	<stop  offset="0.7368" style="stop-color:#B69BDA"/>
	<stop  offset="0.8085" style="stop-color:#C29FC4"/>
	<stop  offset="0.8721" style="stop-color:#D1A4A8"/>
	<stop  offset="0.9296" style="stop-color:#E3AA88"/>
	<stop  offset="0.9807" style="stop-color:#F6B064"/>
	<stop  offset="1" style="stop-color:#FFB354"/>
</linearGradient>
<path opacity="0.4" fill="url(#SVGID_19_)" d="M-97,618.7c0,0,80.7,72.7,234,34S318.3,592,436.3,616
	c106.6,21.7,112.7,62.3,252.7,25.3c151.3-40,162-49.3,232.7-21.3s70,34,114.7,18s40-18.1,88.7-4.1s81.3,16.6,122,0
	s68-11.9,101.3,2.7S1445,730,1445,730l-58,348l-1600-68"/>
<linearGradient id="SVGID_20_" gradientUnits="userSpaceOnUse" x1="625.8452" y1="852.9375" x2="625.8452" y2="627.874">
	<stop  offset="0" style="stop-color:#FFB354"/>
	<stop  offset="0.3441" style="stop-color:#99BFAA"/>
	<stop  offset="0.4852" style="stop-color:#84ABA0"/>
	<stop  offset="0.7098" style="stop-color:#679092"/>
	<stop  offset="0.8387" style="stop-color:#5C868D"/>
</linearGradient>
<path fill="url(#SVGID_20_)" d="M-99,642.7c0,0,80.7,72.7,234,34S316.3,616,434.3,640s101.3,65.3,252.7,25.3S849,616,919.7,644
	s70,34,114.7,18s40-18.1,88.7-4.1s81.3,16.6,122,0s68-11.9,101.3,2.7s-11.3,27.8-11.3,27.8L1311,829l-1418,23.9"/>
<g>
	<circle fill="#F7931E" cx="640.3" cy="114.3" r="47.4"/>
	<g>
		<circle opacity="0.4" fill="#F7931E" cx="640.3" cy="114.3" r="54.7"/>
		<circle opacity="0.4" fill="#F7931E" cx="640.3" cy="114.3" r="51.4"/>
		<path fill="#FFFFFF" d="M659.8,129.7c0,0,3-2.7,5.5-0.4c1.2,1.2,1.5,3.6,1.5,3.6s1.5-2.3,5-2.7c2.1-0.2,3.8,1.8,3.8,1.8
			s-3-1.1-6.1,0.4c-2.2,1-3.3,3.3-3.3,3.3s0.2-4-2.6-5.6C661.9,129.5,659.8,129.7,659.8,129.7z"/>
		<path fill="#FFFFFF" d="M652.4,138c0,0,2-1.8,3.7-0.2c0.8,0.8,1,2.4,1,2.4s1-1.6,3.3-1.8c1.4-0.1,2.5,1.2,2.5,1.2s-2-0.7-4.1,0.3
			c-1.5,0.7-2.2,2.2-2.2,2.2s0.2-2.7-1.7-3.7C653.9,137.8,652.4,138,652.4,138z"/>
	</g>
</g>
</svg>
