<?xml version="1.0" encoding="utf-8"?>
<!-- Generator: Adobe Illustrator 16.2.0, SVG Export Plug-In . SVG Version: 6.00 Build 0)  -->
<!DOCTYPE svg PUBLIC "-//W3C//DTD SVG 1.1//EN" "http://www.w3.org/Graphics/SVG/1.1/DTD/svg11.dtd">
<svg version="1.1" id="Layer_1" xmlns="http://www.w3.org/2000/svg" xmlns:xlink="http://www.w3.org/1999/xlink" x="0px" y="0px"
	 width="1280px" height="800px" viewBox="-400 -80 1280 800" enable-background="new -400 -80 1280 800" xml:space="preserve">
<linearGradient id="SVGID_1_" gradientUnits="userSpaceOnUse" x1="-892.0005" y1="-217.0005" x2="-892.0006" y2="583" gradientTransform="matrix(1 0 0 1 1132 137)">
	<stop  offset="0.0484" style="stop-color:#22355E"/>
	<stop  offset="0.0914" style="stop-color:#473863"/>
	<stop  offset="1" style="stop-color:#659492"/>
</linearGradient>
<rect x="-400" y="-80" fill="url(#SVGID_1_)" width="1280" height="800"/>
<circle fill="#96BEE2" cx="-161.987" cy="-3.202" r="0.6"/>
<circle fill="#96BEE2" cx="-240.187" cy="-13.002" r="0.4"/>
<circle fill="#96BEE2" cx="-209.187" cy="-29.002" r="0.4"/>
<circle fill="#96BEE2" cx="-212.187" cy="-1.002" r="0.4"/>
<circle opacity="0.4" fill="#96BEE2" enable-background="new    " cx="-222.187" cy="-23.002" r="0.4"/>
<circle fill="#96BEE2" cx="-184.187" cy="-11.002" r="0.4"/>
<circle fill="#96BEE2" cx="-224.187" cy="5.998" r="0.4"/>
<circle opacity="0.4" fill="#96BEE2" enable-background="new    " cx="-223.187" cy="1.998" r="0.4"/>
<circle fill="#96BEE2" cx="-152.187" cy="-39.002" r="0.4"/>
<circle fill="#96BEE2" cx="-221.187" cy="-46.002" r="0.4"/>
<circle fill="#96BEE2" cx="-148.187" cy="-55.002" r="0.4"/>
<circle fill="#96BEE2" cx="-220.187" cy="-48.002" r="0.4"/>
<circle fill="#96BEE2" cx="-95.487" cy="-41.602" r="0.9"/>
<circle fill="#96BEE2" cx="-248.187" cy="6.998" r="0.4"/>
<circle fill="#96BEE2" cx="-270.187" cy="-40.002" r="0.4"/>
<circle fill="#96BEE2" cx="-250.187" cy="-35.002" r="0.4"/>
<circle fill="#96BEE2" cx="-306.187" cy="-32.002" r="0.4"/>
<circle fill="#96BEE2" cx="-331.187" cy="-52.002" r="0.4"/>
<circle fill="#96BEE2" cx="-35.187" cy="-38.002" r="0.4"/>
<circle fill="#96BEE2" cx="-374.187" cy="-23.002" r="0.4"/>
<circle fill="#96BEE2" cx="-388.187" cy="-47.002" r="0.4"/>
<circle fill="#96BEE2" cx="4.813" cy="-52.002" r="0.4"/>
<circle fill="#96BEE2" cx="191.813" cy="-4.602" r="0.6"/>
<circle fill="#96BEE2" cx="113.613" cy="-14.402" r="0.4"/>
<circle fill="#96BEE2" cx="144.613" cy="-30.402" r="0.4"/>
<circle fill="#96BEE2" cx="141.613" cy="-2.402" r="0.4"/>
<circle opacity="0.4" fill="#96BEE2" enable-background="new    " cx="131.613" cy="-24.402" r="0.4"/>
<circle fill="#96BEE2" cx="169.613" cy="-12.402" r="0.4"/>
<circle fill="#96BEE2" cx="129.613" cy="4.598" r="0.4"/>
<circle opacity="0.4" fill="#96BEE2" enable-background="new    " cx="130.613" cy="0.598" r="0.4"/>
<circle fill="#96BEE2" cx="201.612" cy="-40.402" r="0.4"/>
<circle fill="#96BEE2" cx="132.613" cy="-47.402" r="0.4"/>
<circle fill="#96BEE2" cx="205.612" cy="-56.402" r="0.4"/>
<circle fill="#96BEE2" cx="133.613" cy="-49.402" r="0.4"/>
<circle fill="#96BEE2" cx="258.313" cy="-43.002" r="0.9"/>
<circle fill="#96BEE2" cx="105.613" cy="5.598" r="0.4"/>
<circle fill="#96BEE2" cx="83.613" cy="-41.402" r="0.4"/>
<circle fill="#96BEE2" cx="103.613" cy="-36.402" r="0.4"/>
<circle fill="#96BEE2" cx="47.613" cy="-33.402" r="0.4"/>
<circle fill="#96BEE2" cx="22.613" cy="-53.402" r="0.4"/>
<circle fill="#96BEE2" cx="318.612" cy="-39.402" r="0.4"/>
<circle fill="#96BEE2" cx="-20.387" cy="-24.402" r="0.4"/>
<circle fill="#96BEE2" cx="-34.387" cy="-48.402" r="0.4"/>
<circle fill="#96BEE2" cx="358.612" cy="-53.402" r="0.4"/>
<circle fill="#96BEE2" cx="52.712" cy="64.198" r="0.6"/>
<circle fill="#96BEE2" cx="-25.487" cy="54.398" r="0.4"/>
<circle fill="#96BEE2" cx="5.513" cy="38.398" r="0.4"/>
<circle fill="#96BEE2" cx="2.513" cy="66.398" r="0.4"/>
<circle opacity="0.4" fill="#96BEE2" enable-background="new    " cx="-7.487" cy="44.398" r="0.4"/>
<circle fill="#96BEE2" cx="30.513" cy="56.398" r="0.4"/>
<circle fill="#96BEE2" cx="-9.487" cy="73.398" r="0.4"/>
<circle opacity="0.4" fill="#96BEE2" enable-background="new    " cx="-8.487" cy="69.398" r="0.4"/>
<circle fill="#96BEE2" cx="62.513" cy="28.398" r="0.4"/>
<circle fill="#96BEE2" cx="-6.487" cy="21.398" r="0.4"/>
<circle fill="#96BEE2" cx="66.513" cy="12.398" r="0.4"/>
<circle fill="#96BEE2" cx="-5.487" cy="19.398" r="0.4"/>
<circle fill="#96BEE2" cx="119.212" cy="25.798" r="0.9"/>
<circle fill="#96BEE2" cx="-33.487" cy="74.398" r="0.4"/>
<circle fill="#96BEE2" cx="-55.487" cy="27.398" r="0.4"/>
<circle fill="#96BEE2" cx="-35.487" cy="32.398" r="0.4"/>
<circle fill="#96BEE2" cx="-91.487" cy="35.398" r="0.4"/>
<circle fill="#96BEE2" cx="-116.487" cy="15.398" r="0.4"/>
<circle fill="#96BEE2" cx="179.513" cy="29.398" r="0.4"/>
<circle fill="#96BEE2" cx="-159.487" cy="44.398" r="0.4"/>
<circle fill="#96BEE2" cx="-173.487" cy="20.398" r="0.4"/>
<circle fill="#96BEE2" cx="219.513" cy="15.398" r="0.4"/>
<circle fill="#96BEE2" cx="432.622" cy="6.799" r="0.6"/>
<circle fill="#96BEE2" cx="354.422" cy="-3.001" r="0.4"/>
<circle fill="#96BEE2" cx="385.422" cy="-19.001" r="0.4"/>
<circle fill="#96BEE2" cx="382.422" cy="8.999" r="0.4"/>
<circle opacity="0.4" fill="#96BEE2" enable-background="new    " cx="372.422" cy="-13.001" r="0.4"/>
<circle fill="#96BEE2" cx="410.422" cy="-1.001" r="0.4"/>
<circle fill="#96BEE2" cx="370.422" cy="15.999" r="0.4"/>
<circle opacity="0.4" fill="#96BEE2" enable-background="new    " cx="371.422" cy="11.999" r="0.4"/>
<circle fill="#96BEE2" cx="442.422" cy="-29.001" r="0.4"/>
<circle fill="#96BEE2" cx="373.422" cy="-36.001" r="0.4"/>
<circle fill="#96BEE2" cx="446.422" cy="-45.001" r="0.4"/>
<circle fill="#96BEE2" cx="374.422" cy="-38.001" r="0.4"/>
<circle fill="#96BEE2" cx="499.122" cy="-31.602" r="0.9"/>
<circle fill="#96BEE2" cx="346.422" cy="16.999" r="0.4"/>
<circle fill="#96BEE2" cx="324.422" cy="-30.001" r="0.4"/>
<circle fill="#96BEE2" cx="344.422" cy="-25.001" r="0.4"/>
<circle fill="#96BEE2" cx="288.422" cy="-22.001" r="0.4"/>
<circle fill="#96BEE2" cx="263.422" cy="-42.001" r="0.4"/>
<circle fill="#96BEE2" cx="559.422" cy="-28.001" r="0.4"/>
<circle fill="#96BEE2" cx="220.422" cy="-13.001" r="0.4"/>
<circle fill="#96BEE2" cx="206.422" cy="-37.001" r="0.4"/>
<circle fill="#96BEE2" cx="599.422" cy="-42.001" r="0.4"/>
<circle fill="#96BEE2" cx="786.422" cy="5.399" r="0.6"/>
<circle fill="#96BEE2" cx="708.222" cy="-4.401" r="0.4"/>
<circle fill="#96BEE2" cx="739.222" cy="-20.401" r="0.4"/>
<circle fill="#96BEE2" cx="736.222" cy="7.599" r="0.4"/>
<circle opacity="0.4" fill="#96BEE2" enable-background="new    " cx="726.222" cy="-14.401" r="0.4"/>
<circle fill="#96BEE2" cx="764.222" cy="-2.401" r="0.4"/>
<circle fill="#96BEE2" cx="724.222" cy="14.599" r="0.4"/>
<circle opacity="0.4" fill="#96BEE2" enable-background="new    " cx="725.222" cy="10.599" r="0.4"/>
<circle fill="#96BEE2" cx="796.222" cy="-30.401" r="0.4"/>
<circle fill="#96BEE2" cx="727.222" cy="-37.401" r="0.4"/>
<circle fill="#96BEE2" cx="800.222" cy="-46.401" r="0.4"/>
<circle fill="#96BEE2" cx="728.222" cy="-39.401" r="0.4"/>
<circle fill="#96BEE2" cx="852.922" cy="-33.001" r="0.9"/>
<circle fill="#96BEE2" cx="700.222" cy="15.599" r="0.4"/>
<circle fill="#96BEE2" cx="678.222" cy="-31.401" r="0.4"/>
<circle fill="#96BEE2" cx="698.222" cy="-26.401" r="0.4"/>
<circle fill="#96BEE2" cx="642.222" cy="-23.401" r="0.4"/>
<circle fill="#96BEE2" cx="617.222" cy="-43.401" r="0.4"/>
<circle fill="#96BEE2" cx="913.222" cy="-29.401" r="0.4"/>
<circle fill="#96BEE2" cx="574.223" cy="-14.401" r="0.4"/>
<circle fill="#96BEE2" cx="560.223" cy="-38.401" r="0.4"/>
<circle fill="#96BEE2" cx="647.321" cy="74.198" r="0.6"/>
<circle fill="#96BEE2" cx="569.121" cy="64.398" r="0.4"/>
<circle fill="#96BEE2" cx="600.122" cy="48.398" r="0.4"/>
<circle fill="#96BEE2" cx="597.122" cy="76.398" r="0.4"/>
<circle opacity="0.4" fill="#96BEE2" enable-background="new    " cx="587.122" cy="54.398" r="0.4"/>
<circle fill="#96BEE2" cx="625.122" cy="66.398" r="0.4"/>
<circle fill="#96BEE2" cx="585.122" cy="83.398" r="0.4"/>
<circle opacity="0.4" fill="#96BEE2" enable-background="new    " cx="586.122" cy="79.398" r="0.4"/>
<circle fill="#96BEE2" cx="657.122" cy="38.398" r="0.4"/>
<circle fill="#96BEE2" cx="588.122" cy="31.398" r="0.4"/>
<circle fill="#96BEE2" cx="661.122" cy="22.398" r="0.4"/>
<circle fill="#96BEE2" cx="589.122" cy="29.398" r="0.4"/>
<circle fill="#96BEE2" cx="713.821" cy="35.798" r="0.9"/>
<circle fill="#96BEE2" cx="561.121" cy="84.398" r="0.4"/>
<circle fill="#96BEE2" cx="539.121" cy="37.398" r="0.4"/>
<circle fill="#96BEE2" cx="559.121" cy="42.398" r="0.4"/>
<circle fill="#96BEE2" cx="503.122" cy="45.398" r="0.4"/>
<circle fill="#96BEE2" cx="478.122" cy="25.398" r="0.4"/>
<circle fill="#96BEE2" cx="774.122" cy="39.398" r="0.4"/>
<circle fill="#96BEE2" cx="435.122" cy="54.398" r="0.4"/>
<circle fill="#96BEE2" cx="421.122" cy="30.398" r="0.4"/>
<circle fill="#96BEE2" cx="814.122" cy="25.398" r="0.4"/>
</svg>
