<?xml version="1.0" encoding="utf-8"?>
<!-- Generator: Adobe Illustrator 16.2.0, SVG Export Plug-In . SVG Version: 6.00 Build 0)  -->
<!DOCTYPE svg PUBLIC "-//W3C//DTD SVG 1.1//EN" "http://www.w3.org/Graphics/SVG/1.1/DTD/svg11.dtd">
<svg version="1.1" id="Layer_1" xmlns="http://www.w3.org/2000/svg" xmlns:xlink="http://www.w3.org/1999/xlink" x="0px" y="0px"
	 width="480px" height="640px" viewBox="0 0 480 640" enable-background="new 0 0 480 640" xml:space="preserve">
<linearGradient id="SVGID_1_" gradientUnits="userSpaceOnUse" x1="-891.5005" y1="-137.0005" x2="-891.5006" y2="504" gradientTransform="matrix(1 0 0 1 1132 137)">
	<stop  offset="0.0484" style="stop-color:#22355E"/>
	<stop  offset="0.0914" style="stop-color:#473863"/>
	<stop  offset="1" style="stop-color:#659492"/>
</linearGradient>
<rect fill="url(#SVGID_1_)" width="481" height="641"/>
<g>
	<ellipse fill="#F26636" cx="243.063" cy="113.159" rx="28.989" ry="29.173"/>
	<g>
		<ellipse opacity="0.4" fill="#F26636" enable-background="new    " cx="243.063" cy="113.159" rx="33.472" ry="33.668"/>
		<ellipse opacity="0.4" fill="#F26636" enable-background="new    " cx="243.063" cy="113.159" rx="31.38" ry="31.67"/>
	</g>
</g>
<path fill="#FFFFFF" d="M251.375,123.325c0,0,1.8-1.7,3.4-0.2c0.699,0.7,0.899,2.2,0.899,2.2s0.9-1.4,3.101-1.7
	c1.3-0.1,2.3,1.1,2.3,1.1s-1.8-0.7-3.7,0.2c-1.3,0.6-2,2-2,2s0.1-2.5-1.6-3.5C252.675,123.225,251.375,123.325,251.375,123.325z"/>
<path fill="#FFFFFF" d="M246.775,128.425c0,0,1.199-1.1,2.3-0.1c0.5,0.5,0.6,1.5,0.6,1.5s0.601-1,2-1.1c0.9-0.1,1.5,0.7,1.5,0.7
	s-1.2-0.4-2.5,0.2c-0.899,0.4-1.399,1.4-1.399,1.4s0.1-1.7-1-2.3C247.675,128.325,246.775,128.425,246.775,128.425z"/>
<circle fill="#96BEE2" cx="265.8" cy="58.8" r="0.6"/>
<circle fill="#96BEE2" cx="187.6" cy="49" r="0.4"/>
<circle fill="#96BEE2" cx="218.6" cy="33" r="0.4"/>
<circle fill="#96BEE2" cx="215.6" cy="61" r="0.4"/>
<circle opacity="0.4" fill="#96BEE2" enable-background="new    " cx="205.6" cy="39" r="0.4"/>
<circle fill="#96BEE2" cx="243.6" cy="51" r="0.4"/>
<circle fill="#96BEE2" cx="203.6" cy="68" r="0.4"/>
<circle opacity="0.4" fill="#96BEE2" enable-background="new    " cx="204.6" cy="64" r="0.4"/>
<circle fill="#96BEE2" cx="275.6" cy="23" r="0.4"/>
<circle fill="#96BEE2" cx="206.6" cy="16" r="0.4"/>
<circle fill="#96BEE2" cx="279.6" cy="7" r="0.4"/>
<circle fill="#96BEE2" cx="207.6" cy="14" r="0.4"/>
<circle fill="#96BEE2" cx="332.3" cy="20.4" r="0.9"/>
<circle fill="#96BEE2" cx="179.6" cy="69" r="0.4"/>
<circle fill="#96BEE2" cx="157.6" cy="22" r="0.4"/>
<circle fill="#96BEE2" cx="177.6" cy="27" r="0.4"/>
<circle fill="#96BEE2" cx="121.6" cy="30" r="0.4"/>
<circle fill="#96BEE2" cx="96.6" cy="10" r="0.4"/>
<circle fill="#96BEE2" cx="392.6" cy="24" r="0.4"/>
<circle fill="#96BEE2" cx="53.6" cy="39" r="0.4"/>
<circle fill="#96BEE2" cx="39.6" cy="15" r="0.4"/>
<circle fill="#96BEE2" cx="432.6" cy="10" r="0.4"/>
</svg>
