<?xml version="1.0" encoding="utf-8"?>
<!-- Generator: Adobe Illustrator 16.2.0, SVG Export Plug-In . SVG Version: 6.00 Build 0)  -->
<!DOCTYPE svg PUBLIC "-//W3C//DTD SVG 1.1//EN" "http://www.w3.org/Graphics/SVG/1.1/DTD/svg11.dtd">
<svg version="1.1" id="Layer_1" xmlns="http://www.w3.org/2000/svg" xmlns:xlink="http://www.w3.org/1999/xlink" x="0px" y="0px"
	 width="1280px" height="800px" viewBox="0 0 1280 800" enable-background="new 0 0 1280 800" xml:space="preserve">
<linearGradient id="SVGID_1_" gradientUnits="userSpaceOnUse" x1="641.5" y1="-18" x2="641.4999" y2="855.0005">
	<stop  offset="0" style="stop-color:#38314F"/>
	<stop  offset="1" style="stop-color:#6B466D"/>
</linearGradient>
<rect x="-14" y="-18" fill="url(#SVGID_1_)" width="1311" height="873"/>
<linearGradient id="SVGID_2_" gradientUnits="userSpaceOnUse" x1="847.6133" y1="632.3428" x2="847.6133" y2="475.5811">
	<stop  offset="0.6452" style="stop-color:#A294FF"/>
	<stop  offset="1" style="stop-color:#DD3F2A"/>
</linearGradient>
<path opacity="0.4" fill="url(#SVGID_2_)" d="M680.4,572.3c0,0,117.3-52.5,148.7-81.5s35.5-10.6,54.6,5.1
	c19.1,15.7,21.1,21.1,33.4,13.6c12.3-7.5,17.3-10.3,34.1,7.1c19,19.7,40.2,46.7,60.7,48.1c20.5,1.4-66.8,67.5-66.8,67.5"/>
<linearGradient id="SVGID_3_" gradientUnits="userSpaceOnUse" x1="404.1587" y1="624.8867" x2="404.1587" y2="455.2734">
	<stop  offset="0.5054" style="stop-color:#A294FF"/>
	<stop  offset="1" style="stop-color:#DD3F2A"/>
</linearGradient>
<path opacity="0.4" fill="url(#SVGID_3_)" d="M174.7,551.2c0,0,134.5-46,172.4-78.3c37.8-32.2,54.7-15.9,79.8,12.3
	s52.1,26.8,78.8,13.8c35-17.1,39.9,13.3,66,25.1c26.1,11.8,63.9,100.8,61.9,100.8"/>
<linearGradient id="SVGID_4_" gradientUnits="userSpaceOnUse" x1="1130.7119" y1="665.1768" x2="1130.7119" y2="531.3711">
	<stop  offset="0.6452" style="stop-color:#A294FF"/>
	<stop  offset="1" style="stop-color:#DD3F2A"/>
</linearGradient>
<path opacity="0.4" fill="url(#SVGID_4_)" d="M905.7,583.7c0,0,58.6-7,88.3-27.8c29.7-20.8,47.4-34.1,73.3-16
	c25.9,18.1,35.5,35.8,84,24.5s46.2-24.5,66.1-14.8s38,44.8,56.4,36.1c18.4-8.7,37.8-17.5,49.5-10.3c11.8,7.2,35,36.6,32,37.1
	c-3.1,0.5-283.3,52.7-283.3,52.7"/>
<linearGradient id="SVGID_5_" gradientUnits="userSpaceOnUse" x1="145.3257" y1="685.7256" x2="145.3257" y2="515.7324">
	<stop  offset="0.6452" style="stop-color:#A294FF"/>
	<stop  offset="1" style="stop-color:#DD3F2A"/>
</linearGradient>
<path opacity="0.4" fill="url(#SVGID_5_)" d="M-97.4,595.7c0,0,93.1-10.2,162.6-51.7s94.1-30.2,121.7-11.8s28.6,29.9,53.7,15.7
	c25.1-14.2,45.8-9.2,69.2,3.9c23.4,13.1,78.1,43.8,78.1,43.8l-331.9,90"/>
<linearGradient id="SVGID_6_" gradientUnits="userSpaceOnUse" x1="640.5044" y1="661.416" x2="640.5044" y2="491.9561">
	<stop  offset="0.6452" style="stop-color:#A294FF"/>
	<stop  offset="1" style="stop-color:#FFB354"/>
</linearGradient>
<path opacity="0.4" fill="url(#SVGID_6_)" d="M384.4,578.9c0,0,88.3-14.3,148.3-49.4s82.9-49.1,112.9-26.6
	c30,22.5,50.5,50.8,79.1,34.1c28.6-16.7,58-5.1,80.8,11.6c22.8,16.7,91,40.9,91,40.9L679,661.4"/>
<linearGradient id="SVGID_7_" gradientUnits="userSpaceOnUse" x1="619.7007" y1="567" x2="619.7007" y2="401.6016">
	<stop  offset="0.2849" style="stop-color:#A294FF"/>
	<stop  offset="1" style="stop-color:#DD3F2A"/>
</linearGradient>
<path fill="url(#SVGID_7_)" d="M401,495c1.5,0,98-12,145-57.5s71-48.9,101-3.7s46.9,54.5,64,39.3c22.7-20.2,24.8-32.3,49.8-1.8
	c20.6,25.1,44.7,31.6,74.3,34.3S691.5,567,691.5,567"/>
<linearGradient id="SVGID_8_" gradientUnits="userSpaceOnUse" x1="838.5186" y1="628.334" x2="838.5186" y2="475.082">
	<stop  offset="0.6452" style="stop-color:#A294FF"/>
	<stop  offset="1" style="stop-color:#DD3F2A"/>
</linearGradient>
<path fill="url(#SVGID_8_)" d="M675,569.7c0,0,114.7-51.3,145.3-79.7s34.7-10.3,53.3,5s20.7,20.7,32.7,13.3s16.9-10.1,33.3,7
	c18.6,19.3,39.3,45.7,59.3,47s-65.3,66-65.3,66"/>
<linearGradient id="SVGID_9_" gradientUnits="userSpaceOnUse" x1="413.7886" y1="623" x2="413.7886" y2="457.1836">
	<stop  offset="0.5054" style="stop-color:#A294FF"/>
	<stop  offset="1" style="stop-color:#DD3F2A"/>
</linearGradient>
<path fill="url(#SVGID_9_)" d="M189.5,551c0,0,131.5-45,168.5-76.5s53.5-15.5,78,12s50.9,26.2,77,13.5c34.3-16.8,39,13,64.5,24.5
	S640,623,638,623"/>
<linearGradient id="SVGID_10_" gradientUnits="userSpaceOnUse" x1="1102.584" y1="679.001" x2="1102.584" y2="526.6904">
	<stop  offset="0.6452" style="stop-color:#A294FF"/>
	<stop  offset="1" style="stop-color:#DD3F2A"/>
</linearGradient>
<path fill="url(#SVGID_10_)" d="M866.2,586.7c0,0,85.5-15.7,114.5-36s46.3-33.3,71.7-15.7s34.7,35,82.2,24s45.2-24,64.7-14.5
	s37.2,43.8,55.2,35.3s36.9-17.1,48.4-10.1s39,50.7,36,51.2S1017,679,1017,679"/>
<linearGradient id="SVGID_11_" gradientUnits="userSpaceOnUse" x1="168.6445" y1="709.667" x2="168.6445" y2="515.3125">
	<stop  offset="0.6452" style="stop-color:#A294FF"/>
	<stop  offset="1" style="stop-color:#DD3F2A"/>
</linearGradient>
<path fill="url(#SVGID_11_)" d="M-76.5,593.5c0,0,91-10,159-50.5s92-29.5,119-11.5s28,29.2,52.5,15.4s44.8-9,67.6,3.8
	s92.2,38.8,92.2,38.8L-50.3,709.7"/>
<linearGradient id="SVGID_12_" gradientUnits="userSpaceOnUse" x1="606.771" y1="705" x2="606.771" y2="495">
	<stop  offset="0.4946" style="stop-color:#A294FF"/>
	<stop  offset="1" style="stop-color:#DD3F2A"/>
</linearGradient>
<path fill="url(#SVGID_12_)" d="M262.9,616.5c0,0,211.1-50.5,269.8-84.9s81-48,110.3-26s49.3,49.7,77.3,33.3s56.7-5,79,11.3
	s151.3,77.6,151.3,77.6L630,705"/>
<circle opacity="0.4" fill="#DD3F2A" cx="610.2" cy="211.4" r="114.7"/>
<circle opacity="0.4" fill="#DD3F2A" cx="610.2" cy="211.4" r="107.7"/>
<circle fill="#DD3F2A" cx="610.3" cy="211.4" r="99.3"/>
<linearGradient id="SVGID_13_" gradientUnits="userSpaceOnUse" x1="618.0005" y1="1067" x2="618.0005" y2="592.874">
	<stop  offset="0" style="stop-color:#A294FF"/>
	<stop  offset="0.3864" style="stop-color:#A393FD"/>
	<stop  offset="0.5255" style="stop-color:#A491F6"/>
	<stop  offset="0.6248" style="stop-color:#A88CEB"/>
	<stop  offset="0.705" style="stop-color:#AC85DA"/>
	<stop  offset="0.7737" style="stop-color:#B27CC4"/>
	<stop  offset="0.8345" style="stop-color:#BA71A8"/>
	<stop  offset="0.8896" style="stop-color:#C36588"/>
	<stop  offset="0.9402" style="stop-color:#CD5562"/>
	<stop  offset="0.9853" style="stop-color:#D94539"/>
	<stop  offset="1" style="stop-color:#DD3F2A"/>
</linearGradient>
<path opacity="0.4" fill="url(#SVGID_13_)" d="M-95,607.7c0,0,80.7,72.7,234,34S320.3,581,438.3,605s101.3,65.3,252.7,25.3
	S853,581,923.7,609s70,34,114.7,18s40-18.1,88.7-4.1s81.3,16.6,122,0s68-11.9,101.3,2.7S1447,719,1447,719l-58,348l-1600-68"/>
<linearGradient id="SVGID_14_" gradientUnits="userSpaceOnUse" x1="618.0005" y1="1075" x2="618.0005" y2="600.874">
	<stop  offset="0" style="stop-color:#A294FF"/>
	<stop  offset="0.3864" style="stop-color:#A393FD"/>
	<stop  offset="0.5255" style="stop-color:#A491F6"/>
	<stop  offset="0.6248" style="stop-color:#A88CEB"/>
	<stop  offset="0.705" style="stop-color:#AC85DA"/>
	<stop  offset="0.7737" style="stop-color:#B27CC4"/>
	<stop  offset="0.8345" style="stop-color:#BA71A8"/>
	<stop  offset="0.8896" style="stop-color:#C36588"/>
	<stop  offset="0.9402" style="stop-color:#CD5562"/>
	<stop  offset="0.9853" style="stop-color:#D94539"/>
	<stop  offset="1" style="stop-color:#DD3F2A"/>
</linearGradient>
<path fill="url(#SVGID_14_)" d="M-95,615.7c0,0,80.7,72.7,234,34S320.3,589,438.3,613s101.3,65.3,252.7,25.3S853,589,923.7,617
	s70,34,114.7,18s40-18.1,88.7-4.1s81.3,16.6,122,0s68-11.9,101.3,2.7S1447,727,1447,727l-58,348l-1600-68"/>
<path fill="#FFFFFF" d="M648.8,247.7c0,0,5.3-4.8,9.7-0.7c2.2,2.1,2.6,6.4,2.6,6.4s2.6-4.1,8.8-4.7c3.8-0.4,6.7,3.3,6.7,3.3
	s-5.2-2-10.8,0.7c-3.8,1.8-5.9,5.9-5.9,5.9s0.4-7.1-4.5-9.8C652.5,247.2,648.8,247.7,648.8,247.7z"/>
<path fill="#FFFFFF" d="M635.8,262.3c0,0,3.6-3.2,6.5-0.4c1.4,1.4,1.7,4.3,1.7,4.3s1.8-2.8,5.9-3.2c2.5-0.2,4.5,2.2,4.5,2.2
	s-3.5-1.3-7.2,0.5c-2.6,1.2-4,4-4,4s0.3-4.7-3-6.6C638.3,262,635.8,262.3,635.8,262.3z"/>
</svg>
