<?xml version="1.0" encoding="utf-8"?>
<!-- Generator: Adobe Illustrator 16.2.0, SVG Export Plug-In . SVG Version: 6.00 Build 0)  -->
<!DOCTYPE svg PUBLIC "-//W3C//DTD SVG 1.1//EN" "http://www.w3.org/Graphics/SVG/1.1/DTD/svg11.dtd">
<svg version="1.1" id="Layer_1" xmlns="http://www.w3.org/2000/svg" xmlns:xlink="http://www.w3.org/1999/xlink" x="0px" y="0px"
	 width="647.1px" height="593px" viewBox="0 0 647.1 593" enable-background="new 0 0 647.1 593" xml:space="preserve">
<g>
	<path fill="#F26636" d="M325.4,128.1c81.7,0,147.9,67.6,147.9,150.9c0,83.4-66.2,150.9-147.9,150.9c-81.7,0-147.9-67.6-147.9-150.9
		C177.5,195.6,243.7,128.1,325.4,128.1z"/>
	<g>
		<path opacity="0.4" fill="#F26636" enable-background="new    " d="M325.4,104.8c94.3,0,170.7,78,170.7,174.2
			c0,96.2-76.4,174.2-170.7,174.2c-94.3,0-170.7-78-170.7-174.2C154.6,182.8,231.1,104.8,325.4,104.8z"/>
		<path opacity="0.4" fill="#F26636" enable-background="new    " d="M325.4,115.1c88.4,0,160.1,73.4,160.1,163.9
			c0,90.5-71.7,163.9-160.1,163.9c-88.4,0-160.1-73.4-160.1-163.9C165.3,188.5,237,115.1,325.4,115.1z"/>
		<path fill="#FBB03B" d="M381.4,305.2c0,0,9.1-8.8,17.3-1c3.6,3.6,4.6,11.4,4.6,11.4s4.6-7.2,15.8-8.8c6.6-0.5,11.7,5.7,11.7,5.7
			s-9.1-3.6-18.8,1c-6.6,3.1-10.2,10.3-10.2,10.3s0.5-12.9-8.1-18.1C388,304.7,381.4,305.2,381.4,305.2z"/>
		<path fill="#FBB03B" d="M358,331.6c0,0,6.1-5.7,11.7-0.5c2.5,2.6,3,7.8,3,7.8s3.1-5.2,10.2-5.7c4.6-0.5,7.6,3.6,7.6,3.6
			s-6.1-2.1-12.7,1c-4.6,2.1-7.1,7.2-7.1,7.2s0.5-8.8-5.1-11.9C362.6,331.1,358,331.6,358,331.6z"/>
	</g>
</g>
</svg>
