<?xml version="1.0" encoding="utf-8"?>
<!-- Generator: Adobe Illustrator 16.2.0, SVG Export Plug-In . SVG Version: 6.00 Build 0)  -->
<!DOCTYPE svg PUBLIC "-//W3C//DTD SVG 1.1//EN" "http://www.w3.org/Graphics/SVG/1.1/DTD/svg11.dtd">
<svg version="1.1" id="Layer_1" xmlns="http://www.w3.org/2000/svg" xmlns:xlink="http://www.w3.org/1999/xlink" x="0px" y="0px"
	 width="647.1px" height="593px" viewBox="0 0 647.1 593" enable-background="new 0 0 647.1 593" xml:space="preserve">
<path fill="#FFFFFF" d="M398.9,321.8c10.9,1.9,24,2.2,34.7-0.2c7-1.6,12.4-8.2,17.8-13.5c6.4-6.4,16.2-14.9,25-14.4
	c6.2,0.4,11.4,8.4,5.8,15.4c2.1-0.7,4-13.6,5.4-15c3.6-3.4,2.6-4.3,3.3-7.5c1.8-8.4,11.3-13.9,17.7-17.5c5.4-3,13-6,18.3-1.6
	c4,3.3,6.5,17.8,4.4,22.8c2.6-5.9,11.6-5.7,16.6-4.9c3.4,0.5,5.8,2.8,7.2,5.6c1.6,3.3,0.7,7.3,1.7,10.4c3.4,10.6,20.5,4.6,26.9,3.3
	c6.7-1.4,19.4,0,18.7,11.2c-0.2,3.8-2.8,5.1,1.7,6.6c4.1,1.4,7.5,0.6,13.1,1.4c3.5,0.5,6.1,1,3.9,4c-2.4,3.3-7.5,3.1-10.7,2.8
	c-9.4-0.7-20.5-1.6-30-1.8c-10.4-0.2-21.8-1.2-32.2,0.2c-7.9,1.1-14.4,0-22.5,0.4c-8.5,0.4-17,1.6-25.2-0.5
	c-8-2.1-15.3-1.4-23.4,0.5c-7.3,1.7-16,1.5-23.4,2.9c-16.4,3.2-32.5,4.1-49.1,2.9c-4.7-0.3-32.3-3-29.9-11.7c1.9-3.5,8.1,2.2,12.1,3
	c1.6,0.3,4.9,0.9,6.5,0.6c3-0.5,1.3-1.7,2.1-4.3C396.4,320.3,398.1,321.5,398.9,321.8"/>
<g>
	<path fill="#F7931E" d="M325.4,128.1c81.7,0,147.9,67.6,147.9,150.9c0,83.4-66.2,150.9-147.9,150.9c-81.7,0-147.9-67.6-147.9-150.9
		C177.5,195.6,243.7,128.1,325.4,128.1z"/>
	<g>
		<path opacity="0.4" fill="#F7931E" enable-background="new    " d="M325.4,104.8c94.3,0,170.7,78,170.7,174.2
			c0,96.2-76.4,174.2-170.7,174.2c-94.3,0-170.7-78-170.7-174.2C154.6,182.8,231.1,104.8,325.4,104.8z"/>
		<path opacity="0.4" fill="#F7931E" enable-background="new    " d="M325.4,115.1c88.4,0,160.1,73.4,160.1,163.9
			c0,90.5-71.7,163.9-160.1,163.9c-88.4,0-160.1-73.4-160.1-163.9C165.3,188.5,237,115.1,325.4,115.1z"/>
		<path fill="#FFFFFF" d="M381.4,305.2c0,0,9.1-8.8,17.3-1c3.6,3.6,4.6,11.4,4.6,11.4s4.6-7.2,15.8-8.8c6.6-0.5,11.7,5.7,11.7,5.7
			s-9.1-3.6-18.8,1c-6.6,3.1-10.2,10.3-10.2,10.3s0.5-12.9-8.1-18.1C388,304.7,381.4,305.2,381.4,305.2z"/>
		<path fill="#FFFFFF" d="M358,331.6c0,0,6.1-5.7,11.7-0.5c2.5,2.6,3,7.8,3,7.8s3.1-5.2,10.2-5.7c4.6-0.5,7.6,3.6,7.6,3.6
			s-6.1-2.1-12.7,1c-4.6,2.1-7.1,7.2-7.1,7.2s0.5-8.8-5.1-11.9C362.6,331.1,358,331.6,358,331.6z"/>
	</g>
</g>
<linearGradient id="SVGID_1_" gradientUnits="userSpaceOnUse" x1="424.0967" y1="334.918" x2="424.0967" y2="464.8535" gradientTransform="matrix(1.1323 -2.356244e-003 -2.356244e-003 1.2447 -84.8097 -81.4085)">
	<stop  offset="0.3226" style="stop-color:#FFFFFF"/>
	<stop  offset="1" style="stop-color:#FFFFFF;stop-opacity:0"/>
</linearGradient>
<path opacity="0.7" fill="url(#SVGID_1_)" d="M187.5,464.2c22.7,4.2,50,5,72.4-0.7c14.6-3.7,25.9-18.8,37.1-31
	c13.4-14.6,33.7-34.1,52.1-33c12.9,0.8,23.8,19.2,12,35.3c4.5-1.5,8.4-31.2,11.3-34.3c7.5-7.7,5.4-9.9,6.9-17.2
	c3.9-19.3,23.6-31.8,37-40.1c11.2-6.9,27-13.8,38.2-3.7c8.3,7.5,13.4,40.8,9.1,52.3c5.5-13.4,24.1-13,34.5-11.3
	c7.1,1.2,12.1,6.4,15,12.7c3.4,7.5,1.3,16.6,3.5,23.9c7,24.4,42.7,10.4,56.1,7.4c14-3.1,40.4-0.1,39,25.7c-0.5,8.6-5.8,11.7,3.4,15
	c8.6,3.1,15.7,1.4,27.3,3.2c7.3,1.2,12.6,2.3,8,9.3c-5,7.5-15.6,7.1-22.4,6.5c-19.6-1.6-42.6-3.6-62.6-4
	c-21.7-0.5-45.5-2.7-67.1,0.6c-16.5,2.5-30.1,0-46.8,0.9c-17.7,1-35.5,3.8-52.5-1c-16.7-4.7-31.8-3.1-48.9,1.2
	c-15.2,3.9-33.3,3.4-48.7,6.7c-34.2,7.4-67.7,9.6-102.3,6.9c-9.7-0.7-67.2-6.8-62.3-26.6c4-8.1,16.8,4.9,25.3,6.8
	c3.3,0.7,10.2,2,13.6,1.3c6.2-1.3,2.7-3.8,4.3-9.9C182.3,460.9,185.8,463.6,187.5,464.2"/>
<linearGradient id="SVGID_2_" gradientUnits="userSpaceOnUse" x1="186.6411" y1="270.6484" x2="186.6411" y2="391.6353">
	<stop  offset="0.4731" style="stop-color:#FFFFFF"/>
	<stop  offset="1" style="stop-color:#FFFFFF;stop-opacity:0"/>
</linearGradient>
<path opacity="0.7" fill="url(#SVGID_2_)" d="M50.4,342.4c7.1,2.2,17.9,1.2,25.3,0c11.2-1.8,14.5-6.1,18.3-16.3
	c3.7-9.8,6.2-18.8,17-22.7c8.8-3.1,19.5-1,21.9,9c0.2-8,9.9-8.1,14.1-3.1c0.1-9,18.1-13.1,21.3-4.4c-11.9-18.9,7.8-34.6,26-34.3
	c19.1,0.3,28.7,28.6,18.4,43.4c11.7-13.8,40.9,4.7,33.9,21.4c24.4-17.3,31.9,21.1,49.6,24.2c11,1.9,22,0.4,32.8,3.1
	c9.7,2.4,35.7,3.8,33.6,14.2c-4.6,23.4-47.6,12.1-69.8,9.7c-32.5-3.5-64.8-7.6-97.7-6.2c-50.8,2.1-107.3,16.7-157.4,2.5
	c-9.3-2.6-15.3-8.9-2.6-9.9c-7.2-0.8-22-1.9-24.2-11.1c-3.7-15.5,16.2-8.6,24.1-9.8c0.2-7.3,8.6-20.8,14.4-10.6"/>
<linearGradient id="SVGID_3_" gradientUnits="userSpaceOnUse" x1="405.6416" y1="388.6484" x2="405.6416" y2="509.6348">
	<stop  offset="0.4731" style="stop-color:#FFFFFF"/>
	<stop  offset="1" style="stop-color:#FFFFFF;stop-opacity:0"/>
</linearGradient>
<path opacity="0.7" fill="url(#SVGID_3_)" d="M269.4,460.4c7.1,2.2,17.9,1.2,25.3,0c11.2-1.8,14.5-6.1,18.3-16.3
	c3.7-9.8,6.2-18.8,17-22.7c8.8-3.1,19.5-1,21.9,9c0.2-8,9.9-8.1,14.1-3.1c0.1-9,18.1-13.1,21.3-4.4c-11.9-18.9,7.8-34.6,26-34.3
	c19.1,0.3,28.7,28.6,18.4,43.4c11.7-13.8,40.9,4.7,33.9,21.4c24.4-17.3,31.9,21.1,49.6,24.2c11,1.9,22,0.4,32.8,3.1
	c9.7,2.4,35.7,3.8,33.6,14.2c-4.6,23.4-47.6,12.1-69.8,9.7c-32.5-3.5-64.8-7.6-97.7-6.2c-50.8,2.1-107.3,16.7-157.4,2.5
	c-9.3-2.6-15.3-8.9-2.6-9.9c-7.2-0.8-22-1.9-24.2-11.1c-3.7-15.5,16.2-8.6,24.1-9.8c0.2-7.3,8.6-20.8,14.4-10.6"/>
<linearGradient id="SVGID_4_" gradientUnits="userSpaceOnUse" x1="326.5898" y1="109.9312" x2="326.5898" y2="239.8677" gradientTransform="matrix(0.7167 3.776067e-003 3.776068e-003 0.5365 -66.4726 259.6472)">
	<stop  offset="0.3226" style="stop-color:#FFFFFF"/>
	<stop  offset="1" style="stop-color:#FFFFFF;stop-opacity:0"/>
</linearGradient>
<path opacity="0.7" fill="url(#SVGID_4_)" d="M37.5,374.9c14.4,1.9,31.7,2.4,45.8,0c9.2-1.5,16.3-8,23.3-13.2
	c8.4-6.2,21.2-14.6,32.9-14c8.2,0.4,15.1,8.4,7.7,15.3c2.8-0.6,5.2-13.4,7-14.7c4.7-3.3,3.4-4.2,4.3-7.4
	c2.4-8.3,14.8-13.6,23.2-17.1c7-2.9,17.1-5.8,24.2-1.4c5.3,3.3,8.7,17.7,6,22.6c3.4-5.8,15.2-5.5,21.8-4.7c4.5,0.5,7.7,2.8,9.6,5.5
	c2.2,3.3,0.9,7.2,2.3,10.3c4.6,10.5,27,4.7,35.5,3.4c8.8-1.3,25.6,0.1,24.8,11.2c-0.3,3.7-3.6,5,2.2,6.5c5.4,1.4,9.9,0.7,17.3,1.5
	c4.6,0.5,8,1,5.1,4c-3.1,3.2-9.8,3-14.1,2.7c-12.4-0.8-27-1.7-39.6-2c-13.8-0.3-28.8-1.4-42.5,0c-10.4,1-19-0.1-29.6,0.2
	c-11.2,0.4-22.4,1.5-33.2-0.7c-10.6-2.1-20.2-1.5-30.9,0.3c-9.6,1.6-21.1,1.3-30.8,2.7c-21.6,3-42.8,3.9-64.7,2.6
	c-6.2-0.4-42.6-3.2-39.5-11.7c2.5-3.5,10.7,2.2,16,3c2.1,0.3,6.5,0.9,8.6,0.6c3.9-0.5,1.7-1.6,2.7-4.3
	C34.1,373.5,36.4,374.6,37.5,374.9"/>
</svg>
